<svg xmlns="http://www.w3.org/2000/svg" version="1.1" xmlns:xlink="http://www.w3.org/1999/xlink" xmlns:svgjs="http://svgjs.dev/svgjs" width="1000" height="623" viewBox="0 0 1000 623"><g transform="matrix(1,0,0,1,-0.6060606060606233,0.2522267206477409)"><svg viewBox="0 0 396 247" data-background-color="#002349" preserveAspectRatio="xMidYMid meet" height="623" width="1000" xmlns="http://www.w3.org/2000/svg" xmlns:xlink="http://www.w3.org/1999/xlink"><g id="tight-bounds" transform="matrix(1,0,0,1,0.2400000000000091,-0.09999999999999432)"><svg viewBox="0 0 395.52 247.2" height="247.2" width="395.52"><g><svg></svg></g><g><svg viewBox="0 0 395.52 247.2" height="247.2" width="395.52"><g transform="matrix(1,0,0,1,108.50236100021732,47.215199999999996)"><svg viewBox="0 0 178.51527799956534 152.7696" height="152.7696" width="178.51527799956534"><g><svg viewBox="0 0 178.51527799956534 152.7696" height="152.7696" width="178.51527799956534"><g><svg viewBox="0 0 244.43135999999998 209.17918910417808" height="152.7696" width="178.51527799956534"><g><svg viewBox="0 0 244.43135999999998 209.17918910417808" height="209.17918910417808" width="244.43135999999998"><g id="textblocktransform"><svg viewBox="0 0 244.43135999999998 209.17918910417808" height="209.17918910417808" width="244.43135999999998" id="textblock"><g><svg viewBox="0 0 244.43135999999998 112.82125927102129" height="112.82125927102129" width="244.43135999999998"><g transform="matrix(1,0,0,1,0,0)"><svg width="244.43135999999998" viewBox="3.6500000953674316 -31.979999542236328 69.2699966430664 31.979999542236328" height="112.82125927102129" data-palette-color="#dbd959"><path d="M27.35 0L3.65 0 3.65-4.17 22.73-29.15 22.73-27.4 3.65-27.5 3.65-31.85 27.35-31.85 27.35-27.68 9.1-3.75 8.85-4.45 27.35-4.35 27.35 0ZM57.72 0L34.02 0 34.02-4.17 53.1-29.15 53.1-27.4 34.02-27.5 34.02-31.85 57.72-31.85 57.72-27.68 39.47-3.75 39.22-4.45 57.72-4.35 57.72 0ZM69.22-31.98L69.22-31.98 72.92-31.98 72.92 0 68.17 0 68.17-26.35Q66.92-25.63 65.62-25.24 64.32-24.85 63.02-24.8L63.02-24.8 63.02-29.4Q64.65-29.6 66.18-30.21 67.72-30.83 69.22-31.98Z" opacity="1" transform="matrix(1,0,0,1,0,0)" fill="#dbd959" class="wordmark-text-0" data-fill-palette-color="primary" id="text-0"></path></svg></g></svg></g><g transform="matrix(1,0,0,1,0,139.4556508746869)"><svg viewBox="0 0 244.43135999999998 69.72353822949115" height="69.72353822949115" width="244.43135999999998"><g transform="matrix(1,0,0,1,0,0)"><svg width="244.43135999999998" viewBox="5.25 -34 121.12000274658203 34.54999923706055" height="69.72353822949115" data-palette-color="#fffff0"><path d="M8.15 0L5.25 0 5.25-30.88 8.15-30.88 8.15 0ZM48.64 0L45.82 0 45.82-13.98Q45.82-17.75 44-19.75 42.19-21.75 39.02-21.75L39.02-21.75Q36.69-21.75 35-20.48 33.32-19.2 32.43-16.9 31.54-14.6 31.54-11.53L31.54-11.53 30.27-11.53Q30.27-15.43 31.33-18.29 32.39-21.15 34.48-22.71 36.57-24.28 39.67-24.28L39.67-24.28Q42.42-24.28 44.43-23.05 46.44-21.83 47.54-19.51 48.64-17.2 48.64-13.98L48.64-13.98 48.64 0ZM31.54 0L28.64 0 28.64-23.73 31.09-23.73 31.54-17.88 31.54 0ZM76.66 0.55L76.66 0.55Q73.83 0.55 71.44-0.99 69.06-2.53 67.63-5.33 66.21-8.13 66.21-11.95L66.21-11.95Q66.21-15.78 67.62-18.54 69.03-21.3 71.37-22.79 73.71-24.28 76.48-24.28L76.48-24.28Q79.06-24.28 81.06-23.01 83.06-21.75 84.18-19.41 85.31-17.07 85.31-13.8L85.31-13.8 83.98-13.8Q83.98-16.43 82.97-18.19 81.96-19.95 80.33-20.85 78.71-21.75 76.86-21.75L76.86-21.75Q74.83-21.75 73.09-20.58 71.36-19.4 70.29-17.23 69.23-15.05 69.23-11.95L69.23-11.95Q69.23-8.83 70.28-6.6 71.33-4.38 73.08-3.2 74.83-2.02 76.88-2.02L76.88-2.02Q78.63-2.02 80.26-2.93 81.88-3.83 82.93-5.59 83.98-7.35 83.98-9.93L83.98-9.93 85.31-9.93Q85.31-6.63 84.17-4.28 83.03-1.93 81.07-0.69 79.11 0.55 76.66 0.55ZM86.86 0L84.41 0 83.98-5.4 83.98-34 86.86-34 86.86 0ZM115.6 0.55L115.6 0.55Q112.42 0.55 110-0.88 107.57-2.3 106.19-5.08 104.8-7.85 104.8-11.88L104.8-11.88Q104.8-15.9 106.19-18.66 107.57-21.43 110-22.85 112.42-24.28 115.6-24.28L115.6-24.28Q118.77-24.28 121.2-22.85 123.62-21.43 125-18.66 126.37-15.9 126.37-11.88L126.37-11.88Q126.37-7.85 125-5.08 123.62-2.3 121.2-0.88 118.77 0.55 115.6 0.55ZM115.55-1.98L115.55-1.98Q118.17-1.98 119.92-3.21 121.67-4.45 122.54-6.68 123.4-8.9 123.4-11.88L123.4-11.88Q123.4-16.35 121.49-19.07 119.57-21.8 115.65-21.8L115.65-21.8Q113.02-21.8 111.29-20.56 109.55-19.33 108.69-17.09 107.82-14.85 107.82-11.88L107.82-11.88Q107.82-7.43 109.74-4.7 111.65-1.98 115.55-1.98Z" opacity="1" transform="matrix(1,0,0,1,0,0)" fill="#fffff0" class="slogan-text-1" data-fill-palette-color="secondary" id="text-1"></path></svg></g></svg></g></svg></g></svg></g></svg></g></svg></g></svg></g><g><path d="M212.858 0c34.781 0 66.207 14.367 88.667 37.489l-5.257 0c-21.579-20.906-50.992-33.774-83.41-33.774-32.418 0-61.832 12.868-83.411 33.774l-5.257 0c22.46-23.123 53.886-37.489 88.668-37.489zM336.458 123.6c0 30.962-11.384 59.264-30.196 80.951v-5.792c16.565-20.56 26.48-46.701 26.48-75.159 0-28.458-9.915-54.6-26.48-75.159l0-5.792c18.811 21.686 30.195 49.989 30.196 80.951zM212.858 247.2c-34.781 0-66.207-14.367-88.668-37.489h5.257c21.579 20.906 50.992 33.774 83.411 33.774 32.418 0 61.832-12.868 83.41-33.774h5.257c-22.46 23.123-53.886 37.489-88.667 37.489z" fill="#957c3d" stroke="transparent" data-fill-palette-color="tertiary"></path></g></svg></g><defs></defs></svg><rect width="395.52" height="247.2" fill="none" stroke="none" visibility="hidden"></rect></g></svg></g></svg>