<svg xmlns="http://www.w3.org/2000/svg" version="1.1" xmlns:xlink="http://www.w3.org/1999/xlink" xmlns:svgjs="http://svgjs.dev/svgjs" width="1000" height="623" viewBox="0 0 1000 623"><g transform="matrix(1,0,0,1,-0.6060606060606233,0.2522267206477409)"><svg viewBox="0 0 396 247" data-background-color="#002349" preserveAspectRatio="xMidYMid meet" height="623" width="1000" xmlns="http://www.w3.org/2000/svg" xmlns:xlink="http://www.w3.org/1999/xlink"><g id="tight-bounds" transform="matrix(1,0,0,1,0.2400000000000091,-0.09999999999999432)"><svg viewBox="0 0 395.52 247.2" height="247.2" width="395.52"><g><svg></svg></g><g><svg viewBox="0 0 395.52 247.2" height="247.2" width="395.52"><g transform="matrix(1,0,0,1,111.45050821010409,47.215199999999996)"><svg viewBox="0 0 172.6189835797918 152.7696" height="152.7696" width="172.6189835797918"><g><svg viewBox="0 0 172.6189835797918 152.7696" height="152.7696" width="172.6189835797918"><g><svg viewBox="0 0 244.43135999999998 216.32430176716394" height="152.7696" width="172.6189835797918"><g><svg viewBox="0 0 244.43135999999998 216.32430176716394" height="216.32430176716394" width="244.43135999999998"><g id="textblocktransform"><svg viewBox="0 0 244.43135999999998 216.32430176716394" height="216.32430176716394" width="244.43135999999998" id="textblock"><g><svg viewBox="0 0 244.43135999999998 116.67499162233044" height="116.67499162233044" width="244.43135999999998"><g transform="matrix(1,0,0,1,0,0)"><svg width="244.43135999999998" viewBox="3.65 -31.85 66.72 31.85" height="116.67499162233044" data-palette-color="#dbd959"><path d="M27.35 0L3.65 0 3.65-4.17 22.73-29.15 22.73-27.4 3.65-27.5 3.65-31.85 27.35-31.85 27.35-27.68 9.1-3.75 8.85-4.45 27.35-4.35 27.35 0ZM57.72 0L34.02 0 34.02-4.17 53.1-29.15 53.1-27.4 34.02-27.5 34.02-31.85 57.72-31.85 57.72-27.68 39.47-3.75 39.22-4.45 57.72-4.35 57.72 0ZM70.37 0L65.62 0 65.62-31.85 70.37-31.85 70.37 0Z" opacity="1" transform="matrix(1,0,0,1,0,0)" fill="#dbd959" class="wordmark-text-0" data-fill-palette-color="primary" id="text-0"></path></svg></g></svg></g><g transform="matrix(1,0,0,1,0,144.21915694456374)"><svg viewBox="0 0 244.43135999999998 72.10514482260021" height="72.10514482260021" width="244.43135999999998"><g transform="matrix(1,0,0,1,0,0)"><svg width="244.43135999999998" viewBox="5.25 -34 117.12 34.55" height="72.10514482260021" data-palette-color="#fffff0"><path d="M8.15 0L5.25 0 5.25-30.88 8.15-30.88 8.15 0ZM47.31 0L44.48 0 44.48-13.98Q44.48-17.75 42.67-19.75 40.86-21.75 37.68-21.75L37.68-21.75Q35.36-21.75 33.67-20.48 31.98-19.2 31.09-16.9 30.21-14.6 30.21-11.53L30.21-11.53 28.93-11.53Q28.93-15.43 29.99-18.29 31.06-21.15 33.14-22.71 35.23-24.28 38.33-24.28L38.33-24.28Q41.08-24.28 43.09-23.05 45.11-21.83 46.21-19.51 47.31-17.2 47.31-13.98L47.31-13.98 47.31 0ZM30.21 0L27.31 0 27.31-23.73 29.76-23.73 30.21-17.88 30.21 0ZM73.99 0.55L73.99 0.55Q71.16 0.55 68.78-0.99 66.39-2.53 64.96-5.33 63.54-8.13 63.54-11.95L63.54-11.95Q63.54-15.78 64.95-18.54 66.36-21.3 68.7-22.79 71.04-24.28 73.81-24.28L73.81-24.28Q76.39-24.28 78.39-23.01 80.39-21.75 81.51-19.41 82.64-17.07 82.64-13.8L82.64-13.8 81.31-13.8Q81.31-16.43 80.3-18.19 79.29-19.95 77.66-20.85 76.04-21.75 74.19-21.75L74.19-21.75Q72.16-21.75 70.43-20.58 68.69-19.4 67.63-17.23 66.56-15.05 66.56-11.95L66.56-11.95Q66.56-8.83 67.61-6.6 68.66-4.38 70.41-3.2 72.16-2.02 74.21-2.02L74.21-2.02Q75.96-2.02 77.59-2.93 79.21-3.83 80.26-5.59 81.31-7.35 81.31-9.93L81.31-9.93 82.64-9.93Q82.64-6.63 81.5-4.28 80.36-1.93 78.4-0.69 76.44 0.55 73.99 0.55ZM84.19 0L81.74 0 81.31-5.4 81.31-34 84.19-34 84.19 0ZM111.6 0.55L111.6 0.55Q108.42 0.55 106-0.88 103.57-2.3 102.18-5.08 100.8-7.85 100.8-11.88L100.8-11.88Q100.8-15.9 102.18-18.66 103.57-21.43 106-22.85 108.42-24.28 111.6-24.28L111.6-24.28Q114.77-24.28 117.2-22.85 119.62-21.43 121-18.66 122.37-15.9 122.37-11.88L122.37-11.88Q122.37-7.85 121-5.08 119.62-2.3 117.2-0.88 114.77 0.55 111.6 0.55ZM111.55-1.98L111.55-1.98Q114.17-1.98 115.92-3.21 117.67-4.45 118.53-6.68 119.4-8.9 119.4-11.88L119.4-11.88Q119.4-16.35 117.48-19.07 115.57-21.8 111.65-21.8L111.65-21.8Q109.02-21.8 107.28-20.56 105.55-19.33 104.68-17.09 103.82-14.85 103.82-11.88L103.82-11.88Q103.82-7.43 105.73-4.7 107.65-1.98 111.55-1.98Z" opacity="1" transform="matrix(1,0,0,1,0,0)" fill="#fffff0" class="slogan-text-1" data-fill-palette-color="secondary" id="text-1"></path></svg></g></svg></g></svg></g></svg></g></svg></g></svg></g></svg></g><g><path d="M209.909 0c34.781 0 66.207 14.367 88.668 37.489l-5.257 0c-21.579-20.906-50.992-33.774-83.411-33.774-32.418 0-61.832 12.868-83.41 33.774l-5.257 0c22.46-23.123 53.886-37.489 88.667-37.489zM333.509 123.6c0 27.578-9.032 53.046-24.298 73.608l0-6.418c12.993-19.165 20.584-42.291 20.583-67.19 0-24.899-7.59-48.025-20.583-67.19v-6.418c15.267 20.562 24.299 46.031 24.298 73.608zM209.909 247.2c-34.781 0-66.207-14.367-88.667-37.489h5.257c21.579 20.906 50.992 33.774 83.41 33.774 32.418 0 61.832-12.868 83.411-33.774h5.257c-22.46 23.123-53.886 37.489-88.668 37.489z" fill="#957c3d" stroke="transparent" data-fill-palette-color="tertiary"></path></g></svg></g><defs></defs></svg><rect width="395.52" height="247.2" fill="none" stroke="none" visibility="hidden"></rect></g></svg></g></svg>