<svg xmlns="http://www.w3.org/2000/svg" version="1.1" xmlns:xlink="http://www.w3.org/1999/xlink" xmlns:svgjs="http://svgjs.dev/svgjs" width="1000" height="1000" viewBox="0 0 1000 1000"><rect width="1000" height="1000" fill="#000000"></rect><g transform="matrix(0.7,0,0,0.7,149.57575757575756,282.1265587044535)"><svg viewBox="0 0 396 247" data-background-color="#002349" preserveAspectRatio="xMidYMid meet" height="623" width="1000" xmlns="http://www.w3.org/2000/svg" xmlns:xlink="http://www.w3.org/1999/xlink"><g id="tight-bounds" transform="matrix(1,0,0,1,0.2400000000000091,-0.09999999999999432)"><svg viewBox="0 0 395.52 247.2" height="247.2" width="395.52"><g><svg></svg></g><g><svg viewBox="0 0 395.52 247.2" height="247.2" width="395.52"><g transform="matrix(1,0,0,1,75.54432,65.26250418883478)"><svg viewBox="0 0 244.43135999999998 116.67499162233044" height="116.67499162233044" width="244.43135999999998"><g><svg viewBox="0 0 244.43135999999998 116.67499162233044" height="116.67499162233044" width="244.43135999999998"><g><svg viewBox="0 0 244.43135999999998 116.67499162233044" height="116.67499162233044" width="244.43135999999998"><g><svg viewBox="0 0 244.43135999999998 116.67499162233044" height="116.67499162233044" width="244.43135999999998"><g id="textblocktransform"><svg viewBox="0 0 244.43135999999998 116.67499162233044" height="116.67499162233044" width="244.43135999999998" id="textblock"><g><svg viewBox="0 0 244.43135999999998 116.67499162233044" height="116.67499162233044" width="244.43135999999998"><g transform="matrix(1,0,0,1,0,0)"><svg width="244.43135999999998" viewBox="3.65 -31.85 66.72 31.85" height="116.67499162233044" data-palette-color="#dbd959"><path d="M27.35 0L3.65 0 3.65-4.17 22.73-29.15 22.73-27.4 3.65-27.5 3.65-31.85 27.35-31.85 27.35-27.68 9.1-3.75 8.85-4.45 27.35-4.35 27.35 0ZM57.72 0L34.02 0 34.02-4.17 53.1-29.15 53.1-27.4 34.02-27.5 34.02-31.85 57.72-31.85 57.72-27.68 39.47-3.75 39.22-4.45 57.72-4.35 57.72 0ZM70.37 0L65.62 0 65.62-31.85 70.37-31.85 70.37 0Z" opacity="1" transform="matrix(1,0,0,1,0,0)" fill="#ffffff" class="wordmark-text-0" data-fill-palette-color="primary" id="text-0"></path></svg></g></svg></g></svg></g></svg></g></svg></g></svg></g></svg></g><g><path d="M245.816 0c68.262 0 123.6 55.338 123.6 123.6 0 68.262-55.338 123.6-123.6 123.6-41.351 0-77.959-20.306-100.397-51.49l6.558 0c21.636 28.113 55.622 46.229 93.839 46.229 65.357 0 118.339-52.982 118.339-118.339 0-65.357-52.982-118.339-118.339-118.339-38.217 0-72.203 18.116-93.839 46.229l-6.558 0c22.438-31.184 59.046-51.49 100.397-51.49z" fill="#ffffff" stroke="transparent" data-fill-palette-color="tertiary"></path></g></svg></g><defs></defs></svg><rect width="395.52" height="247.2" fill="none" stroke="none" visibility="hidden"></rect></g></svg></g></svg>